<svg xmlns="http://www.w3.org/2000/svg" viewBox="0 0 200 50" xml:space="preserve">
  <path d="m38.8 21.1-8.7 8.5 2.1 11.9-10.8-5.6-10.7 5.6 2-11.9L4 21.1l12-1.8 5.4-10.8 5.4 10.8zm39.3 0-8.7 8.5 2.1 11.9-10.8-5.6L50 41.5l2-11.9-8.7-8.5 12-1.8 5.4-10.8 5.4 10.8zm39.3 0-8.7 8.5 2.1 11.9-10.8-5.6-10.8 5.6 2.1-11.9-8.7-8.5 12-1.8L100 8.5l5.4 10.8zm39.3 0-8.7 8.5 2 11.9-10.7-5.6-10.8 5.6 2.1-11.9-8.7-8.5 12-1.8 5.4-10.8 5.4 10.8zm30.6 8.5 2 11.9-10.7-5.6-10.8 5.6 2.1-11.9-8.7-8.5 12-1.8 5.4-10.8 5.4 10.8 12 1.8z"/>
  <path fill="#FF0" d="M188 0H12C5.4 0 0 5.4 0 12v26c0 6.6 5.4 12 12 12h176c6.6 0 12-5.4 12-12V12c0-6.6-5.4-12-12-12zM32.2 41.5l-10.8-5.7-10.8 5.7 2-12L4 21.1l12-1.7 5.4-10.9 5.4 10.9 12 1.7-8.7 8.5 2.1 11.9zm39.3 0-10.8-5.7L50 41.5l2-12-8.7-8.5 12-1.7 5.4-10.9 5.4 10.9 12 1.7-8.7 8.5 2.1 12zm39.3 0L100 35.9l-10.8 5.7 2-12-8.7-8.5 12-1.7L100 8.5l5.4 10.9 12 1.7-8.7 8.5 2.1 11.9zm39.2 0-10.8-5.7-10.8 5.7 2-12-8.7-8.5 12-1.7 5.4-10.9 5.4 10.9 12 1.7-8.7 8.5 2.2 12zm39.3 0-10.8-5.7-10.8 5.7 2.1-12-8.7-8.5 12-1.7 5.4-10.9 5.4 10.9 12 1.7-8.7 8.5 2.1 12z"/>
  <text transform="translate(18.322 30.567)" fill="#FFF" font-size="12">1</text>
  <text transform="translate(57.622 30.567)" fill="#FFF" font-size="12">2</text>
  <text transform="translate(96.922 30.567)" fill="#FFF" font-size="12">3</text>
  <text transform="translate(136.222 30.567)" fill="#FFF" font-size="12">4</text>
  <text transform="translate(175.522 30.567)" fill="#FFF" font-size="12">5</text>
</svg>
