<?xml version="1.0" encoding="UTF-8"?>
<svg width="96px" height="67px" viewBox="0 0 96 67" version="1.1" xmlns="http://www.w3.org/2000/svg" xmlns:xlink="http://www.w3.org/1999/xlink">
    <title>Group 133</title>
    <defs>
        <linearGradient x1="0.00075%" y1="49.9994286%" x2="100.0005%" y2="49.9994286%" id="linearGradient-1">
            <stop stop-color="#FFFFFF" offset="0%"></stop>
            <stop stop-color="#FFFFFF" offset="99.97%"></stop>
        </linearGradient>
    </defs>
    <g id="Symbols" stroke="none" stroke-width="1" fill="none" fill-rule="evenodd">
        <g id="nav-web-copy" transform="translate(-77, -46)" fill-rule="nonzero">
            <g id="Group-133" transform="translate(77, 46)">
                <path d="M0,62.8268703 L0,49.5487303 L2.90599364,49.5487303 L7.16939221,57.9708648 L11.3754356,49.5487303 L14.2814293,49.5487303 L14.2814293,62.8268703 L11.8342767,62.8268703 L11.8342767,53.6649537 L8.10619279,60.9299931 L6.17523649,60.9299931 L2.44715254,53.6649537 L2.44715254,62.8268703 L0,62.8268703 Z M18.0059102,67 L20.2045238,62.2009008 L19.6309724,62.2009008 L15.9411252,53.4183596 L18.5985799,53.4183596 L21.2560346,60.0384609 L24.0281996,53.4183596 L26.6282992,53.4183596 L20.6060097,67 L18.0059102,67 Z M28.285495,62.8268703 L28.285495,49.5487303 L31.1914886,49.5487303 L35.4548872,57.9708648 L39.6609306,49.5487303 L42.5669243,49.5487303 L42.5669243,62.8268703 L40.1197717,62.8268703 L40.1197717,53.6649537 L36.3916878,60.9299931 L34.4607315,60.9299931 L30.7326475,53.6649537 L30.7326475,62.8268703 L28.285495,62.8268703 Z M49.713595,63.0544955 C48.7576761,63.0544955 47.9101436,62.8521863 47.1708506,62.4474949 C46.4316311,62.0428034 45.8516824,61.4737403 45.4310781,60.7403054 C45.0104737,60.0068706 44.8001716,59.1595501 44.8001716,58.19849 C44.8001716,57.2247355 45.00415,56.3585192 45.4119597,55.5997684 C45.8325641,54.8410175 46.4061154,54.2529856 47.1326138,53.8356726 C47.8719069,53.4057381 48.7385577,53.1907344 49.7327134,53.1907344 C50.6631902,53.1907344 51.4852805,53.3930436 52.1989843,53.7977351 C52.9127617,54.2024265 53.4671947,54.7587952 53.8622833,55.466987 C54.2701666,56.1624843 54.4740715,56.9402039 54.4740715,57.8001458 C54.4740715,57.9392745 54.4677477,58.0846774 54.4549531,58.2364276 C54.4549531,58.3881778 54.4486293,58.5462752 54.4358347,58.7106469 L47.2282057,58.7106469 C47.2792371,59.4440817 47.5340998,60.0194921 47.9929409,60.4368051 C48.4645766,60.8541181 49.0317307,61.0627745 49.6944767,61.0627745 C50.1915545,61.0627745 50.6058351,60.9553092 50.9371713,60.7403054 C51.2813021,60.5126802 51.5362384,60.2218014 51.7019065,59.8677419 L54.1872958,59.8677419 C54.0089066,60.4621211 53.7093363,61.0058682 53.288732,61.4990563 C52.8809222,61.9796228 52.3710497,62.3589982 51.7592616,62.6371826 C51.1602681,62.9153669 50.4783302,63.0544955 49.713595,63.0544955 Z M49.7327134,55.1634866 C49.1337199,55.1634866 48.604729,55.3342056 48.1458879,55.6756434 C47.6870468,56.0044598 47.3939474,56.5102694 47.2664425,57.1931452 L51.9886822,57.1931452 C51.9504454,56.5735229 51.7210249,56.0803349 51.3004205,55.713581 C50.8798162,55.3468271 50.3572962,55.1634866 49.7327134,55.1634866 Z M60.8913025,63.0544955 C59.999136,63.0544955 59.2024878,62.8394918 58.5015051,62.4095573 C57.8005224,61.9796228 57.2460894,61.3915909 56.8382061,60.6454616 C56.4303229,59.8993322 56.226418,59.0520848 56.226418,58.1036462 C56.226418,57.1552076 56.4303229,56.3142344 56.8382061,55.5807996 C57.2460894,54.8346703 57.8005224,54.2529856 58.5015051,53.8356726 C59.2024878,53.4057381 59.999136,53.1907344 60.8913025,53.1907344 C61.6050799,53.1907344 62.2295891,53.3235158 62.7649037,53.5890786 C63.3002183,53.8546414 63.7335437,54.2276696 64.0649535,54.7082361 L64.0649535,49.1693548 L66.512106,49.1693548 L66.512106,62.8268703 L64.3326108,62.8268703 L64.0649535,61.4800875 C63.7590594,61.8974005 63.3511761,62.2641544 62.8413772,62.5802763 C62.3442993,62.8963981 61.6942744,63.0544955 60.8913025,63.0544955 Z M61.4074988,60.9299931 C62.1977496,60.9299931 62.8413772,60.6707776 63.3384551,60.1522735 C63.848254,59.6211479 64.1031902,58.9446194 64.1031902,58.122615 C64.1031902,57.3006105 63.848254,56.6304293 63.3384551,56.1119252 C62.8413772,55.5807996 62.1977496,55.3152368 61.4074988,55.3152368 C60.6300425,55.3152368 59.9863414,55.5744523 59.4765425,56.0929564 C58.9667435,56.6114605 58.7118073,57.2816418 58.7118073,58.1036462 C58.7118073,58.9256506 58.9667435,59.6021791 59.4765425,60.1333047 C59.9863414,60.6644303 60.6300425,60.9299931 61.4074988,60.9299931 Z M70.3614446,51.9577642 C69.9153981,51.9577642 69.5457516,51.8249828 69.2525786,51.55942 C68.9722002,51.2938572 68.8319743,50.9587666 68.8319743,50.5540752 C68.8319743,50.1493837 68.9722002,49.8206403 69.2525786,49.567699 C69.5457516,49.3021362 69.9153981,49.1693548 70.3614446,49.1693548 C70.8075646,49.1693548 71.1708138,49.3021362 71.4511922,49.567699 C71.7443652,49.8206403 71.8909149,50.1493837 71.8909149,50.5540752 C71.8909149,50.9587666 71.7443652,51.2938572 71.4511922,51.55942 C71.1708138,51.8249828 70.8075646,51.9577642 70.3614446,51.9577642 Z M67.206912,67 L67.206912,64.9324039 L67.9525288,64.9324039 C68.3731332,64.9324039 68.6727035,64.8501816 68.8510926,64.6858099 C69.0295554,64.5214382 69.11875,64.2431809 69.11875,63.8511839 L69.11875,53.4183596 L71.5659025,53.4183596 L71.5659025,63.8511839 C71.5659025,64.9893102 71.272803,65.7986202 70.686457,66.2791867 C70.1129057,66.7597532 69.3290521,67 68.3348964,67 L67.206912,67 Z M78.6699246,63.0544955 C77.7522423,63.0544955 76.9235341,62.8458391 76.1845353,62.4285261 C75.4580368,62.0112131 74.8778676,61.4358027 74.4447627,60.7023679 C74.0241584,59.9562385 73.8138562,59.0963695 73.8138562,58.122615 C73.8138562,57.1488604 74.0307763,56.2952657 74.4638811,55.5618308 C74.8969859,54.8157015 75.4771552,54.2340168 76.2036536,53.8167038 C76.9426525,53.3993909 77.7713607,53.1907344 78.6890429,53.1907344 C79.5942247,53.1907344 80.4096971,53.3993909 81.1361955,53.8167038 C81.8751944,54.2340168 82.4553636,54.8157015 82.875968,55.5618308 C83.3090728,56.2952657 83.5259929,57.1488604 83.5259929,58.122615 C83.5259929,59.0963695 83.3090728,59.9562385 82.875968,60.7023679 C82.4553636,61.4358027 81.8751944,62.0112131 81.1361955,62.4285261 C80.3971966,62.8458391 79.5751063,63.0544955 78.6699246,63.0544955 Z M78.6699246,60.9489619 C79.307449,60.9489619 79.861882,60.7149894 80.3332235,60.2471174 C80.8045651,59.7665508 81.0406036,59.058432 81.0406036,58.122615 C81.0406036,57.1867979 80.8045651,56.4849534 80.3332235,56.0170813 C79.861882,55.5365148 79.3133315,55.296268 78.6890429,55.296268 C78.039018,55.296268 77.4779671,55.5365148 77.0066256,56.0170813 C76.5477845,56.4849534 76.3183639,57.1867979 76.3183639,58.122615 C76.3183639,59.058432 76.5477845,59.7665508 77.0066256,60.2471174 C77.4779671,60.7149894 78.0324001,60.9489619 78.6699246,60.9489619 Z M91.3351155,63.0544955 C90.6211175,63.0544955 89.9968289,62.9217141 89.4615143,62.6561513 C88.9261997,62.3905885 88.4923595,62.0175604 88.1614645,61.5369938 L87.8938072,62.8268703 L85.714312,62.8268703 L85.714312,49.1693548 L88.1614645,49.1693548 L88.1614645,54.7651424 C88.4673586,54.3478294 88.8688445,53.9810755 89.3659224,53.6649537 C89.8755007,53.3488318 90.5321435,53.1907344 91.3351155,53.1907344 C92.2270614,53.1907344 93.0234154,53.4057381 93.7249129,53.8356726 C94.425675,54.2656071 94.980108,54.853639 95.3882119,55.5997684 C95.7955804,56.3458977 96,57.1931452 96,58.1415837 C96,59.0900223 95.7955804,59.9372698 95.3882119,60.6833991 C94.980108,61.416834 94.425675,61.9985916 93.7249129,62.4285261 C93.0234154,62.8458391 92.2270614,63.0544955 91.3351155,63.0544955 Z M90.8189192,60.9299931 C91.5961549,60.9299931 92.2395619,60.6707776 92.7498755,60.1522735 C93.2594539,59.6337694 93.5146107,58.9635881 93.5146107,58.1415837 C93.5146107,57.3195793 93.2594539,56.6430508 92.7498755,56.1119252 C92.2395619,55.5807996 91.5961549,55.3152368 90.8189192,55.3152368 C90.0284478,55.3152368 89.3784229,55.5807996 88.8688445,56.1119252 C88.3717667,56.6304293 88.1232278,57.3006105 88.1232278,58.122615 C88.1232278,58.9446194 88.3717667,59.6211479 88.8688445,60.1522735 C89.3784229,60.6707776 90.0284478,60.9299931 90.8189192,60.9299931 Z" id="Shape" fill="#130160"></path>
                <path d="M26.0338983,21.8830645 C26.0338983,11.567315 26.0338983,6.40939642 29.2507607,3.20469456 C32.4676231,7.09649453e-15 37.6451064,7.09649453e-15 48,7.09649453e-15 C58.3549668,7.09649453e-15 63.5323037,7.09649453e-15 66.7492393,3.20469456 C69.9661017,6.40939642 69.9661017,11.567315 69.9661017,21.8830645 C69.9661017,32.198887 69.9661017,37.3566524 66.7492393,40.5614272 C63.5323037,43.766129 58.3549668,43.766129 48,43.766129 C37.6451064,43.766129 32.4676231,43.766129 29.2507607,40.5614272 C26.0338983,37.3566524 26.0338983,32.198887 26.0338983,21.8830645 Z" id="Path" fill="#130160"></path>
                <path d="M62.3728814,18.341832 C62.3728814,13.6784097 59.30656,8.64516129 54.3529112,8.64516129 C50.8745058,8.64516129 48.7660529,10.6430349 47.7288136,12.0141559 C46.6915742,10.6426721 44.5831214,8.64516129 41.1047159,8.64516129 C36.1510671,8.64516129 33.0847458,13.6784097 33.0847458,18.341832 C33.0847458,23.8530899 37.651059,28.4540401 42.5855241,32.6054234 C42.7470481,32.741614 42.9394712,32.8073512 43.1304298,32.8073512 C43.3920461,32.8073512 43.65088,32.6834228 43.8250712,32.4463771 C44.1262264,32.0364992 44.0598156,31.4425427 43.6765071,31.1202418 C39.0923281,27.2637326 34.850381,23.0465396 34.850381,18.341832 C34.850381,15.1933399 36.8380203,10.5345613 41.1047159,10.5345613 C45.17584,10.5345613 46.8713302,13.9749526 46.9395715,14.1181088 C47.0887946,14.4360562 47.3933912,14.6353719 47.7257383,14.6370408 C47.7269831,14.6370408 47.7282278,14.6370408 47.7297654,14.6370408 C48.0608678,14.6370408 48.3648054,14.437072 48.5161519,14.1217367 C48.5862969,13.9753154 50.28208,10.5349241 54.3532041,10.5349241 C58.6198997,10.5349241 60.6076122,15.1937027 60.6076122,18.3421948 C60.6076122,22.0145528 58.1136542,25.7144101 52.2746983,30.7018021 C50.685158,31.9697462 49.2053017,32.4384684 48.2196095,31.9578468 C47.3161437,31.5169142 46.7978169,30.2439636 46.7978169,28.4649238 L46.7978169,24.5188059 C46.7978169,23.9971893 46.4024271,23.5741059 45.9149993,23.5741059 L43.1102942,23.5741059 L43.1102942,21.581529 L45.9149993,21.581529 C46.4024271,21.581529 46.7978169,21.1584456 46.7978169,20.636829 L46.7978169,17.6351209 L48.6601031,17.6351209 L48.6601031,20.636829 C48.6601031,21.1584456 49.0552,21.581529 49.5429207,21.581529 L52.3476258,21.581529 L52.3476258,23.5741059 L49.5429207,23.5741059 C49.0554929,23.5741059 48.6601031,23.9971893 48.6601031,24.5188059 L48.6601031,28.4649238 C48.6601031,28.9865404 49.0552,29.4096238 49.5429207,29.4096238 C50.0303485,29.4096238 50.4257383,28.9865404 50.4257383,28.4649238 L50.4257383,25.4632157 L53.2304434,25.4632157 C53.7178712,25.4632157 54.1131878,25.0401323 54.1131878,24.5185157 L54.1131878,20.6365388 C54.1131878,20.1149222 53.7178712,19.6918388 53.2304434,19.6918388 L50.4257383,19.6918388 L50.4257383,16.6900582 C50.4257383,16.1684415 50.0303485,15.7453582 49.5429207,15.7453582 L45.9149993,15.7453582 C45.4275715,15.7453582 45.0322549,16.1684415 45.0322549,16.6900582 L45.0322549,19.6918388 L42.2275498,19.6918388 C41.740122,19.6918388 41.3447322,20.1149222 41.3447322,20.6365388 L41.3447322,24.5185157 C41.3447322,25.0401323 41.740122,25.4632157 42.2275498,25.4632157 L45.0322549,25.4632157 L45.0322549,28.4649238 C45.0322549,31.0157589 45.9270807,32.9154621 47.4869668,33.6767364 C47.9855241,33.9200221 48.5232542,34.0403226 49.0915905,34.0403226 C50.3636475,34.0403226 51.7891742,33.4364256 53.2693234,32.2646203 C53.2798671,32.256639 53.2912895,32.2514149 53.3014671,32.2424903 C53.3209437,32.2259471 53.3403471,32.2090412 53.3598237,32.1922079 C53.6010847,31.997826 53.8435905,31.7892955 54.0872678,31.5648023 C58.4867851,27.7261422 62.3728814,23.4630202 62.3728814,18.341832 Z" id="Path" fill="url(#linearGradient-1)"></path>
            </g>
        </g>
    </g>
</svg>