<?xml version="1.0" encoding="UTF-8"?>
<svg width="20px" height="19px" viewBox="0 0 20 19" version="1.1" xmlns="http://www.w3.org/2000/svg" xmlns:xlink="http://www.w3.org/1999/xlink">
    <title>Group</title>
    <g id="Symbols" stroke="none" stroke-width="1" fill="none" fill-rule="evenodd">
        <g id="nav" transform="translate(-217, -28)" fill="#B6B6B6" fill-rule="nonzero">
            <g id="Group" transform="translate(217, 28)">
                <path d="M7.62593288,18.2 C7.44858523,18.2 7.29992617,18.128 7.1799557,17.984 C7.05998523,17.84 7,17.661625 7,17.448875 C7,17.236125 7.05998523,17.058125 7.1799557,16.914875 C7.29992617,16.771625 7.44858523,16.7 7.62593288,16.7 L19.3740671,16.7 C19.5514148,16.7 19.7000738,16.772 19.8200443,16.916 C19.9400148,17.06 20,17.238375 20,17.451125 C20,17.663875 19.9400148,17.841875 19.8200443,17.985125 C19.7000738,18.128375 19.5514148,18.2 19.3740671,18.2 L7.62593288,18.2 Z M7.62593288,10.2 C7.44858523,10.2 7.29992617,10.128 7.1799557,9.984 C7.05998523,9.84 7,9.661625 7,9.448875 C7,9.236125 7.05998523,9.058125 7.1799557,8.914875 C7.29992617,8.771625 7.44858523,8.7 7.62593288,8.7 L19.3740671,8.7 C19.5514148,8.7 19.7000738,8.772 19.8200443,8.916 C19.9400148,9.06 20,9.238375 20,9.451125 C20,9.663875 19.9400148,9.841875 19.8200443,9.985125 C19.7000738,10.128375 19.5514148,10.2 19.3740671,10.2 L7.62593288,10.2 Z M7.62593288,2.2 C7.44858523,2.2 7.29992617,2.128 7.1799557,1.984 C7.05998523,1.84 7,1.661625 7,1.448875 C7,1.236125 7.05998523,1.058125 7.1799557,0.914875 C7.29992617,0.771625 7.44858523,0.7 7.62593288,0.7 L19.3740671,0.7 C19.5514148,0.7 19.7000738,0.772 19.8200443,0.916 C19.9400148,1.06 20,1.238375 20,1.451125 C20,1.663875 19.9400148,1.841875 19.8200443,1.985125 C19.7000738,2.128375 19.5514148,2.2 19.3740671,2.2 L7.62593288,2.2 Z M1.50014131,19 C1.08751766,19 0.734338201,18.8531462 0.44060292,18.5594386 C0.14686764,18.2655426 0,17.9123964 0,17.5 C0,17.0876036 0.14686764,16.7344574 0.44060292,16.4405614 C0.734338201,16.1468538 1.08751766,16 1.50014131,16 C1.91257654,16 2.2656618,16.1468538 2.55939708,16.4405614 C2.85313236,16.7344574 3,17.0876036 3,17.5 C3,17.9123964 2.85313236,18.2655426 2.55939708,18.5594386 C2.2656618,18.8531462 1.91257654,19 1.50014131,19 L1.50014131,19 Z M1.50014131,11 C1.08751766,11 0.734338201,10.8531462 0.44060292,10.5594386 C0.14686764,10.2655426 0,9.91239638 0,9.5 C0,9.08760362 0.14686764,8.73445742 0.44060292,8.44056142 C0.734338201,8.14685381 1.08751766,8 1.50014131,8 C1.91257654,8 2.2656618,8.14685381 2.55939708,8.44056142 C2.85313236,8.73445742 3,9.08760362 3,9.5 C3,9.91239638 2.85313236,10.2655426 2.55939708,10.5594386 C2.2656618,10.8531462 1.91257654,11 1.50014131,11 L1.50014131,11 Z M1.50014131,3 C1.08751766,3 0.734338201,2.85314619 0.44060292,2.55943858 C0.14686764,2.26554258 0,1.91239638 0,1.5 C0,1.08760362 0.14686764,0.734457423 0.44060292,0.440561417 C0.734338201,0.146853806 1.08751766,0 1.50014131,0 C1.91257654,0 2.2656618,0.146853806 2.55939708,0.440561417 C2.85313236,0.734457423 3,1.08760362 3,1.5 C3,1.91239638 2.85313236,2.26554258 2.55939708,2.55943858 C2.2656618,2.85314619 1.91257654,3 1.50014131,3 L1.50014131,3 Z" id="Shape"></path>
            </g>
        </g>
    </g>
</svg>