<?xml version="1.0" encoding="UTF-8"?>
<svg width="23px" height="18px" viewBox="0 0 23 18" version="1.1" xmlns="http://www.w3.org/2000/svg" xmlns:xlink="http://www.w3.org/1999/xlink">
    <title>Group</title>
    <g id="Symbols" stroke="none" stroke-width="1" fill="none" fill-rule="evenodd">
        <g id="nav-web" transform="translate(-30, -218)" fill="#246BFD" fill-rule="nonzero">
            <g id="Group" transform="translate(30, 218)">
                <path d="M18.6000395,9.8769 C18.8576798,9.8769 19.0734561,9.7907 19.2473684,9.6183 C19.4210789,9.4461 19.5079342,9.2323 19.5079342,8.9769 C19.5079342,8.7215 19.4210789,8.5077 19.2473684,8.3355 C19.0734561,8.1631 18.8576798,8.0769 18.6000395,8.0769 L14.9221579,8.0769 C14.6645175,8.0769 14.4487412,8.1631 14.2748289,8.3355 C14.1011184,8.5077 14.0142632,8.7215 14.0142632,8.9769 C14.0142632,9.2323 14.1011184,9.4461 14.2748289,9.6183 C14.4487412,9.7907 14.6645175,9.8769 14.9221579,9.8769 L18.6000395,9.8769 Z M18.6000395,6.4155 C18.8576798,6.4155 19.0734561,6.3293 19.2473684,6.1569 C19.4210789,5.9847 19.5079342,5.7709 19.5079342,5.5155 C19.5079342,5.2601 19.4210789,5.0462 19.2473684,4.8738 C19.0734561,4.7016 18.8576798,4.6155 18.6000395,4.6155 L14.9221579,4.6155 C14.6645175,4.6155 14.4487412,4.7016 14.2748289,4.8738 C14.1011184,5.0462 14.0142632,5.2601 14.0142632,5.5155 C14.0142632,5.7709 14.1011184,5.9847 14.2748289,6.1569 C14.4487412,6.3293 14.6645175,6.4155 14.9221579,6.4155 L18.6000395,6.4155 Z M6.08743421,10.5507 C5.56448684,10.6615 5.10045175,10.8377 4.69532895,11.0793 C4.32611842,11.2931 4.04608333,11.5323 3.85522368,11.7969 C3.66416228,12.0615 3.56863158,12.3453 3.56863158,12.6483 C3.56863158,12.8577 3.64973684,13.0327 3.81194737,13.1733 C3.97415789,13.3141 4.17480263,13.3845 4.41388158,13.3845 L11.4161711,13.3845 C11.65525,13.3845 11.8557939,13.3091 12.0178026,13.1583 C12.1800132,13.0077 12.2611184,12.8216 12.2611184,12.6 C12.2611184,12.3292 12.1676053,12.0665 11.9805789,11.8119 C11.7935526,11.5573 11.5115,11.3131 11.1344211,11.0793 C10.7295,10.8377 10.2654649,10.6615 9.74231579,10.5507 C9.21936842,10.4399 8.61027193,10.3845 7.91502632,10.3845 C7.2197807,10.3845 6.61058333,10.4399 6.08743421,10.5507 Z M7.91502632,8.8155 C8.50314035,8.8155 9.0031886,8.6112 9.41517105,8.2026 C9.82735526,7.7942 10.0334474,7.2985 10.0334474,6.7155 C10.0334474,6.1323 9.82735526,5.6365 9.41517105,5.2281 C9.0031886,4.8197 8.50314035,4.6155 7.91502632,4.6155 C7.32691228,4.6155 6.82676316,4.8197 6.41457895,5.2281 C6.00259649,5.6365 5.79660526,6.1323 5.79660526,6.7155 C5.79660526,7.2985 6.00259649,7.7942 6.41457895,8.2026 C6.82676316,8.6112 7.32691228,8.8155 7.91502632,8.8155 Z M2.18832895,18 C1.5768114,18 1.05921053,17.79 0.635526316,17.37 C0.211842105,16.95 0,16.4369 0,15.8307 L0,2.1693 C0,1.5631 0.211842105,1.05 0.635526316,0.63 C1.05921053,0.21 1.5768114,0 2.18832895,0 L20.8116711,0 C21.4231886,0 21.9407895,0.21 22.3644737,0.63 C22.7881579,1.05 23,1.5631 23,2.1693 L23,15.8307 C23,16.4369 22.7881579,16.95 22.3644737,17.37 C21.9407895,17.79 21.4231886,18 20.8116711,18 L2.18832895,18 Z M1.89794566,16.4 L21.0020533,16.4 C21.0976701,16.4 21.1852153,16.3601632 21.264689,16.2804896 C21.3443697,16.2010229 21.38421,16.1134854 21.38421,16.0178771 L21.38421,1.88212292 C21.38421,1.78651458 21.3443697,1.69897708 21.264689,1.61951042 C21.1852153,1.53983681 21.0976701,1.5 21.0020533,1.5 L1.89794566,1.5 C1.80232888,1.5 1.71478365,1.53983681 1.63530997,1.61951042 C1.55562932,1.69897708 1.515789,1.78651458 1.515789,1.88212292 L1.515789,16.0178771 C1.515789,16.1134854 1.55562932,16.2010229 1.63530997,16.2804896 C1.71478365,16.3601632 1.80232888,16.4 1.89794566,16.4 Z" id="Shape"></path>
            </g>
        </g>
    </g>
</svg>