<?xml version="1.0" encoding="UTF-8"?>
<svg width="17px" height="10px" viewBox="0 0 17 10" version="1.1" xmlns="http://www.w3.org/2000/svg" xmlns:xlink="http://www.w3.org/1999/xlink">
    <title>Group</title>
    <g id="App" stroke="none" stroke-width="1" fill="none" fill-rule="evenodd">
        <g id="Informations" transform="translate(-338, -472)" fill="#130160" fill-rule="nonzero">
            <g id="Group-2-Copy-3" transform="translate(20, 428)">
                <g id="Group" transform="translate(326.5, 49) rotate(-270) translate(-326.5, -49)translate(322, 41)">
                    <path d="M7.10217106,8.00326774 L0.263677429,1.48579584 C0.0833208878,1.31390584 -0.00451214254,1.10928175 0.000178337975,0.871923574 C0.00486881849,0.6345654 0.0973923293,0.429869209 0.27774887,0.257835004 C0.458105411,0.0859450013 0.672808374,-8.36739926e-14 0.921857759,-8.36739926e-14 C1.17090714,-8.36739926e-14 1.38568576,0.0859450013 1.56619361,0.257835004 L8.51635094,6.89513961 C8.68036645,7.05159989 8.80194068,7.22687867 8.88107362,7.42097593 C8.96035787,7.6150732 9,7.80917047 9,8.00326774 C9,8.19736501 8.96035787,8.39146227 8.88107362,8.58555954 C8.80194068,8.77965681 8.68036645,8.95493558 8.51635094,9.11139586 L1.55212217,15.7487005 C1.37176562,15.9205905 1.1594079,16.0043003 0.915048997,15.99983 C0.670538787,15.9953597 0.458105411,15.9071796 0.27774887,15.7352896 C0.0973923293,15.5633996 0.00721405875,15.3587755 0.00721405875,15.1214173 C0.00721405875,14.8840591 0.0973923293,14.679363 0.27774887,14.5073288 L7.10217106,8.00326774 Z" id="Path"></path>
                </g>
            </g>
        </g>
    </g>
</svg>