<?xml version="1.0" encoding="utf-8"?>
<svg xmlns="http://www.w3.org/2000/svg" shape-rendering="geometricPrecision" text-rendering="geometricPrecision" image-rendering="optimizeQuality" fill-rule="evenodd" clip-rule="evenodd" viewBox="0 0 512 512">
  <path fill="#E67E22" d="M256 29.464c125.114 0 226.536 101.422 226.536 226.536S381.114 482.536 256 482.536 29.464 381.114 29.464 256 130.886 29.464 256 29.464z"/>
  <path d="M256 341.492c14.453 0 26.168 11.717 26.168 26.171 0 14.453-11.715 26.167-26.168 26.167s-26.171-11.714-26.171-26.167c0-14.454 11.718-26.171 26.171-26.171zm19.55-39.211c-.88 22.063-38.246 22.092-39.1-.007-3.778-37.804-13.443-127.553-13.135-163.074.311-10.946 9.383-17.426 20.989-19.898 3.578-.765 7.513-1.136 11.477-1.132 3.986.007 7.932.4 11.514 1.165 11.988 2.554 21.401 9.301 21.398 20.444l-.045 1.117-13.098 161.385z" style="fill: rgb(255, 255, 255);"/>
</svg>