<?xml version="1.0" encoding="UTF-8"?>
<svg width="17px" height="20px" viewBox="0 0 17 20" version="1.1" xmlns="http://www.w3.org/2000/svg" xmlns:xlink="http://www.w3.org/1999/xlink">
    <title>Group</title>
    <g id="App" stroke="none" stroke-width="1" fill="none" fill-rule="evenodd">
        <g id="Informations-perso" transform="translate(-338, -629)" fill="#130160" fill-rule="nonzero">
            <g id="Group-2-Copy" transform="translate(20, 590)">
                <g id="Group" transform="translate(318, 39)">
                    <path d="M1.80775,19.11525 C1.30258333,19.11525 0.875,18.94025 0.525,18.59025 C0.175,18.24025 0,17.8126667 0,17.3075 L0,3.923 C0,3.41783333 0.175,2.99025 0.525,2.64025 C0.875,2.29025 1.30258333,2.11525 1.80775,2.11525 L3.19225,2.11525 L3.19225,0.769 C3.19225,0.549833333 3.26566667,0.366833333 3.4125,0.22 C3.55933333,0.0733333333 3.74233333,0 3.9615,0 C4.18083333,0 4.36383333,0.0733333333 4.5105,0.22 C4.65733333,0.366833333 4.73075,0.549833333 4.73075,0.769 L4.73075,2.11525 L12.30775,2.11525 L12.30775,0.75 C12.30775,0.537166667 12.3795,0.358916667 12.523,0.21525 C12.6666667,0.07175 12.8449167,0 13.05775,0 C13.2705833,0 13.44875,0.07175 13.59225,0.21525 C13.7359167,0.358916667 13.80775,0.537166667 13.80775,0.75 L13.80775,2.11525 L15.19225,2.11525 C15.6974167,2.11525 16.125,2.29025 16.475,2.64025 C16.825,2.99025 17,3.41783333 17,3.923 L17,17.3075 C17,17.8126667 16.825,18.24025 16.475,18.59025 C16.125,18.94025 15.6974167,19.11525 15.19225,19.11525 L1.80775,19.11525 Z M1.80775,17.61525 L15.19225,17.61525 C15.26925,17.61525 15.33975,17.5831667 15.40375,17.519 C15.4679167,17.455 15.5,17.3845 15.5,17.3075 L15.5,7.923 L1.5,7.923 L1.5,17.3075 C1.5,17.3845 1.53208333,17.455 1.59625,17.519 C1.66025,17.5831667 1.73075,17.61525 1.80775,17.61525 L1.80775,17.61525 Z M1.5,6.423 L15.5,6.423 L15.5,3.923 C15.5,3.846 15.4679167,3.7755 15.40375,3.7115 C15.33975,3.64733333 15.26925,3.61525 15.19225,3.61525 L1.80775,3.61525 C1.73075,3.61525 1.66025,3.64733333 1.59625,3.7115 C1.53208333,3.7755 1.5,3.846 1.5,3.923 L1.5,6.423 Z M1.5375,6.423 L1.5375,3.61525 L1.5375,6.423 Z" id="Shape"></path>
                </g>
            </g>
        </g>
    </g>
</svg>