<?xml version="1.0" encoding="UTF-8"?>
<svg width="24px" height="26px" viewBox="0 0 24 26" version="1.1" xmlns="http://www.w3.org/2000/svg" xmlns:xlink="http://www.w3.org/1999/xlink">
    <title>Group Copy</title>
    <g id="App" stroke="none" stroke-width="1" fill="none" fill-rule="evenodd">
        <g id="Type" transform="translate(-184, -542)" fill="#246BFD" fill-rule="nonzero">
            <g id="Group-4" transform="translate(20, 488)">
                <g id="Group-2-Copy" transform="translate(148, 40)">
                    <g id="Group-Copy" transform="translate(16, 14)">
                        <path d="M10.3145899,15.8001197 L10.3145899,17.4667863 C10.3145899,17.9296752 10.4782994,18.3232308 10.8057185,18.647453 C11.1331375,18.971453 11.5306696,19.133453 11.9983148,19.133453 C12.4661847,19.133453 12.8642786,18.971453 13.1925966,18.647453 C13.5211392,18.3232308 13.6854106,17.9296752 13.6854106,17.4667863 L13.6854106,15.8001197 L15.3708209,15.8001197 C15.8389155,15.8001197 16.2368971,15.6382308 16.5647656,15.314453 C16.8924093,14.9906752 17.0562312,14.5975641 17.0562312,14.1351197 C17.0562312,13.672453 16.8924093,13.2787863 16.5647656,12.9541197 C16.2368971,12.6292308 15.8389155,12.4667863 15.3708209,12.4667863 L13.6854106,12.4667863 L13.6854106,10.8001197 C13.6854106,10.3372308 13.521701,9.94367524 13.194282,9.61945301 C12.8668629,9.29545301 12.4693308,9.13345301 12.0016856,9.13345301 C11.5338157,9.13345301 11.1357218,9.29545301 10.8074039,9.61945301 C10.4788612,9.94367524 10.3145899,10.3372308 10.3145899,10.8001197 L10.3145899,12.4667863 L8.62917956,12.4667863 C8.16108493,12.4667863 7.76310337,12.6286752 7.43523488,12.952453 C7.10759112,13.2762308 6.94376923,13.6693419 6.94376923,14.1317863 C6.94376923,14.594453 7.10759112,14.9881197 7.43523488,15.3127863 C7.76310337,15.6376752 8.16108493,15.8001197 8.62917956,15.8001197 L10.3145899,15.8001197 Z M2.8924,26 C2.09693333,26 1.416,25.7199495 0.8496,25.1598485 C0.2832,24.5997475 0,23.9263868 0,23.1397666 L0,9.63009843 C0,9.17732374 0.1024,8.74841399 0.3072,8.34336919 C0.512266667,7.93806068 0.795466667,7.60434701 1.1568,7.34222817 L10.2648,0.572363116 C10.7701333,0.190787705 11.3477333,0 11.9976,0 C12.6474667,0 13.2266667,0.190787705 13.7352,0.572363116 L22.8432,7.34222817 C23.2045333,7.60434701 23.4877333,7.93806068 23.6928,8.34336919 C23.8976,8.74841399 24,9.17732374 24,9.63009843 L24,23.1397666 C24,23.9263868 23.7168,24.5997475 23.1504,25.1598485 C22.584,25.7199495 21.9030667,26 21.1076,26 L2.8924,26 Z M2.8924,23.6266906 L21.1076,23.6266906 C21.2513333,23.6266906 21.3693333,23.5810703 21.4616,23.4898298 C21.5538667,23.3985892 21.6,23.2819015 21.6,23.1397666 L21.6,9.63009843 C21.6,9.54914221 21.582,9.47570147 21.546,9.40977621 C21.5102667,9.34385095 21.4616,9.28544117 21.4,9.23454687 L12.2924,2.48010832 C12.2102667,2.40890904 12.1128,2.3733094 12,2.3733094 C11.8872,2.3733094 11.7897333,2.40890904 11.7076,2.48010832 L2.6,9.23454687 C2.5384,9.28544117 2.48973333,9.34385095 2.454,9.40977621 C2.418,9.47570147 2.4,9.54914221 2.4,9.63009843 L2.4,23.1397666 C2.4,23.2819015 2.44613333,23.3985892 2.5384,23.4898298 C2.63066667,23.5810703 2.74866667,23.6266906 2.8924,23.6266906 Z" id="Shape"></path>
                    </g>
                </g>
            </g>
        </g>
    </g>
</svg>