<?xml version="1.0" encoding="UTF-8"?>
<svg width="122px" height="122px" viewBox="0 0 122 122" version="1.1" xmlns="http://www.w3.org/2000/svg" xmlns:xlink="http://www.w3.org/1999/xlink">
    <title>Group 9</title>
    <g id="App" stroke="none" stroke-width="1" fill="none" fill-rule="evenodd">
        <g id="Informations-profil" transform="translate(-124, -242)">
            <g id="Group-5" transform="translate(124, 242)">
                <circle id="Oval" fill="#EBEBEB" cx="61" cy="61" r="61"></circle>
                <g id="Group" transform="translate(37, 31)" fill="#BEBEBE">
                    <path d="M1.84608532,43.624672 C1.84608532,41.717572 3.27131532,40.105972 5.16915532,39.895472 C19.4122153,38.318872 28.6522153,38.460972 42.8639153,39.930572 C43.5736153,40.005072 44.2462153,40.284672 44.7996153,40.735172 C45.3530153,41.185672 45.7632153,41.787572 45.9802153,42.467372 C46.1971153,43.147172 46.2114153,43.875472 46.0212153,44.563272 C45.8311153,45.251072 45.4448153,45.868572 44.9094153,46.340372 C28.1371153,60.960072 18.5519153,60.758872 3.02761532,46.355172 C2.27069532,45.653572 1.84608532,44.656672 1.84608532,43.626572 L1.84608532,43.624672 Z" id="Path" fill-rule="nonzero"></path>
                    <path d="M42.6739153,41.765572 C28.5748153,40.307172 19.4677153,40.170572 5.37048532,41.730572 C4.90644532,41.784572 4.47864532,42.007972 4.16900532,42.357772 C3.85936532,42.707572 3.68964532,43.159372 3.69229406,43.626572 C3.69229406,44.154572 3.91202532,44.654872 4.28309532,45.001972 C11.9779153,52.139172 17.8080153,55.364372 23.5071153,55.384768 C29.2265153,55.404972 35.3705153,52.205572 43.6966153,44.950272 C43.9611153,44.714772 44.1516153,44.407572 44.2447153,44.065972 C44.3379153,43.724372 44.3299153,43.362972 44.2215153,43.025872 C44.1132153,42.688672 43.9092153,42.390272 43.6345153,42.166872 C43.3597153,41.943472 43.0260153,41.804772 42.6739153,41.767472 L42.6739153,41.765572 Z M4.96617532,38.060372 C19.3588153,36.467172 28.7335153,36.611172 43.0560153,38.093572 C44.1236153,38.205072 45.1356153,38.625372 45.9681153,39.303072 C46.8005153,39.980772 47.4173153,40.886572 47.7429153,41.909372 C48.0685153,42.932272 48.0888153,44.027872 47.8013153,45.062072 C47.5138153,46.096272 46.9311153,47.024272 46.1243153,47.732372 C37.6782153,55.094872 30.6443153,59.104672 23.4960153,59.0771146 C16.3274153,59.051172 9.60371532,54.972972 1.77417532,47.708372 C1.21359532,47.186272 0.766715321,46.554072 0.461455321,45.851472 C0.156195321,45.148872 -0.000888679437,44.390772 1.06179239e-05,43.624672 C-0.00267067944,42.248272 0.502555321,40.919172 1.41890532,39.892172 C2.33526532,38.865072 3.59833532,38.212172 4.96617532,38.058572 L4.96617532,38.060372 Z" id="Shape"></path>
                    <path d="M38.7694153,14.769272 C38.7694153,18.686272 37.2134153,22.442872 34.4436153,25.212672 C31.6738153,27.982472 27.9172153,29.538472 24.0002153,29.538472 C20.0831153,29.538472 16.3265153,27.982472 13.5568153,25.212672 C10.7870153,22.442872 9.23101532,18.686272 9.23101532,14.769272 C9.23101532,10.852172 10.7870153,7.095572 13.5568153,4.325812 C16.3265153,1.556042 20.0831153,0 24.0002153,0 C27.9172153,0 31.6738153,1.556042 34.4436153,4.325812 C37.2134153,7.095572 38.7694153,10.852172 38.7694153,14.769272 Z" id="Path" fill-rule="nonzero"></path>
                    <path d="M24.0002153,25.846172 C26.9380153,25.846172 29.7554153,24.679172 31.8328153,22.601772 C33.9101153,20.524472 35.0771153,17.706972 35.0771153,14.769272 C35.0771153,11.831472 33.9101153,9.013992 31.8328153,6.936662 C29.7554153,4.859342 26.9380153,3.692312 24.0002153,3.692312 C21.0624153,3.692312 18.2449153,4.859342 16.1676153,6.936662 C14.0903153,9.013992 12.9233153,11.831472 12.9233153,14.769272 C12.9233153,17.706972 14.0903153,20.524472 16.1676153,22.601772 C18.2449153,24.679172 21.0624153,25.846172 24.0002153,25.846172 Z M24.0002153,29.538472 C27.9172153,29.538472 31.6738153,27.982472 34.4436153,25.212672 C37.2134153,22.442872 38.7694153,18.686272 38.7694153,14.769272 C38.7694153,10.852172 37.2134153,7.095572 34.4436153,4.325812 C31.6738153,1.556042 27.9172153,0 24.0002153,0 C20.0831153,0 16.3265153,1.556042 13.5568153,4.325812 C10.7870153,7.095572 9.23101532,10.852172 9.23101532,14.769272 C9.23101532,18.686272 10.7870153,22.442872 13.5568153,25.212672 C16.3265153,27.982472 20.0831153,29.538472 24.0002153,29.538472 Z" id="Shape"></path>
                </g>
            </g>
        </g>
    </g>
</svg>