<?xml version="1.0" encoding="UTF-8"?>
<svg width="24px" height="24px" viewBox="0 0 24 24" version="1.1" xmlns="http://www.w3.org/2000/svg" xmlns:xlink="http://www.w3.org/1999/xlink">
    <title>Group</title>
    <g id="Symbols" stroke="none" stroke-width="1" fill="none" fill-rule="evenodd" stroke-linecap="round" stroke-linejoin="round">
        <g id="nav-web" transform="translate(-29, -488)" stroke="#246BFD" stroke-width="1.9">
            <g id="Group-6" transform="translate(30, 488)">
                <g id="Group" transform="translate(0, 1)">
                    <path d="M8.40766667,5.52322201 C9.83888889,4.27044423 12.1611111,4.27044423 13.5923333,5.52322201 C15.0247778,6.77599979 15.0247778,8.80733313 13.5923333,10.0601109 C13.3442222,10.2788887 13.0667778,10.4585554 12.7734444,10.6003331 C11.8628889,11.0415554 11.0012222,11.8213331 11.0012222,12.8333331 L11.0012222,13.7499998 M11.11,18.04 C11.4137566,18.04 11.66,17.7937566 11.66,17.49 C11.66,17.1862434 11.4137566,16.94 11.11,16.94 C10.8062434,16.94 10.56,17.1862434 10.56,17.49 C10.56,17.7937566 10.8062434,18.04 11.11,18.04 Z M22,11 C22,14.9299213 19.9034119,18.5613186 16.5,20.5262794 C13.0965882,22.4912402 8.90341182,22.4912402 5.5,20.5262794 C2.09658808,18.5613186 0,14.9299213 0,11 C0,4.92486763 4.92486784,0 11,0 C17.0751322,0 22,4.92486763 22,11 L22,11 Z" id="Shape"></path>
                </g>
            </g>
        </g>
    </g>
</svg>