<?xml version="1.0" encoding="UTF-8"?>
<svg width="24px" height="18px" viewBox="0 0 24 18" version="1.1" xmlns="http://www.w3.org/2000/svg" xmlns:xlink="http://www.w3.org/1999/xlink">
    <title>Group</title>
    <g id="App" stroke="none" stroke-width="1" fill="none" fill-rule="evenodd">
        <g id="Type" transform="translate(-20, -75)" fill="#130160" fill-rule="nonzero">
            <g id="Group" transform="translate(32, 84) scale(-1, 1) translate(-32, -84)translate(20, 75)">
                <path d="M21.194258,9.88951841 L0.877754412,9.88951841 C0.627886989,9.88951841 0.419127732,9.80535123 0.251476639,9.63701685 C0.0838255463,9.46868247 0,9.25907239 0,9.0081866 C0,8.75730081 0.0838255463,8.54769073 0.251476639,8.37935635 C0.419127732,8.21102198 0.627886989,8.12685479 0.877754412,8.12685479 L21.194258,8.12685479 L14.6383103,1.54418748 C14.4671482,1.37232778 14.3776173,1.17006213 14.3697175,0.937390531 C14.3618177,0.704425155 14.4513486,0.490849079 14.6383103,0.296662303 C14.8317089,0.10218175 15.0404681,0.00332569818 15.2645881,0 C15.4884155,-0.00343117904 15.6971747,0.092046434 15.8908659,0.286526987 L23.5843833,8.01140032 C23.7376977,8.16533961 23.8452226,8.32251045 23.906958,8.48291284 C23.968986,8.64331523 24,8.81840648 24,9.0081866 C24,9.19796672 23.968986,9.37305797 23.906958,9.53346036 C23.8452226,9.69386275 23.7376977,9.85103359 23.5843833,10.0049729 L15.8908659,17.7298462 C15.7197038,17.9017059 15.5165036,17.9916018 15.2812654,17.9995338 C15.0460272,18.0074657 14.8317089,17.9141915 14.6383103,17.7197109 C14.4513486,17.5255241 14.3562586,17.3176767 14.3530401,17.0961686 C14.3495291,16.8746606 14.4446192,16.6666663 14.6383103,16.4721857 L21.194258,9.88951841 Z" id="Path"></path>
            </g>
        </g>
    </g>
</svg>