<?xml version="1.0" encoding="UTF-8"?>
<svg width="17px" height="17px" viewBox="0 0 17 17" version="1.1" xmlns="http://www.w3.org/2000/svg" xmlns:xlink="http://www.w3.org/1999/xlink">
    <title>Group</title>
    <g id="App" stroke="none" stroke-width="1" fill="none" fill-rule="evenodd">
        <g id="Profil" transform="translate(-35, -432)" fill="#246BFD" fill-rule="nonzero">
            <g id="Group-4" transform="translate(20, 415)">
                <g id="Group" transform="translate(15, 17)">
                    <path d="M3.15215789,13.2351711 C3.91268421,12.6708904 4.74121053,12.2252368 5.63773684,11.8982105 C6.53411404,11.5713333 7.48820175,11.4078947 8.5,11.4078947 C9.51179825,11.4078947 10.465886,11.5713333 11.3622632,11.8982105 C12.2587895,12.2252368 13.0873158,12.6708904 13.8478421,13.2351711 C14.4040702,12.6237675 14.8448026,11.9160307 15.1700395,11.1119605 C15.4952763,10.3078904 15.6578947,9.43723684 15.6578947,8.5 C15.6578947,6.51666667 14.9607456,4.82785088 13.5664474,3.43355263 C12.1721491,2.03925439 10.4833333,1.34210526 8.5,1.34210526 C6.51666667,1.34210526 4.82785088,2.03925439 3.43355263,3.43355263 C2.03925439,4.82785088 1.34210526,6.51666667 1.34210526,8.5 C1.34210526,9.43723684 1.50472368,10.3078904 1.82996053,11.1119605 C2.15519737,11.9160307 2.59592982,12.6237675 3.15215789,13.2351711 Z M8.50022368,9.17105263 C7.68332895,9.17105263 6.99445614,8.89070175 6.43360526,8.33 C5.87260526,7.76914912 5.59210526,7.08027632 5.59210526,6.26338158 C5.59210526,5.44648684 5.87245614,4.75761404 6.43315789,4.19676316 C6.99400877,3.63576316 7.68288158,3.35526316 8.49977632,3.35526316 C9.31667105,3.35526316 10.0055439,3.63561404 10.5663947,4.19631579 C11.1273947,4.75716667 11.4078947,5.44603947 11.4078947,6.26293421 C11.4078947,7.07982895 11.1275439,7.76870175 10.5668421,8.32955263 C10.0059912,8.89055263 9.31711842,9.17105263 8.50022368,9.17105263 Z M8.5,17 C7.31969298,17 6.21245614,16.7780307 5.17828947,16.3340921 C4.14412281,15.8901535 3.24453947,15.2856096 2.47953947,14.5204605 C1.71439035,13.7554605 1.10984649,12.8558772 0.665907895,11.8217105 C0.221969298,10.7875439 0,9.68030702 0,8.5 C0,7.31969298 0.221969298,6.21245614 0.665907895,5.17828947 C1.10984649,4.14412281 1.71439035,3.24453947 2.47953947,2.47953947 C3.24453947,1.71439035 4.14412281,1.10984649 5.17828947,0.665907895 C6.21245614,0.221969298 7.31969298,0 8.5,0 C9.68030702,0 10.7875439,0.221969298 11.8217105,0.665907895 C12.8558772,1.10984649 13.7554605,1.71439035 14.5204605,2.47953947 C15.2856096,3.24453947 15.8901535,4.14412281 16.3340921,5.17828947 C16.7780307,6.21245614 17,7.31969298 17,8.5 C17,9.68030702 16.7780307,10.7875439 16.3340921,11.8217105 C15.8901535,12.8558772 15.2856096,13.7554605 14.5204605,14.5204605 C13.7554605,15.2856096 12.8558772,15.8901535 11.8217105,16.3340921 C10.7875439,16.7780307 9.68030702,17 8.5,17 Z M8.5,15.6578947 C9.3075,15.6578947 10.0860702,15.5280088 10.8357105,15.2682368 C11.5853509,15.0083158 12.2509605,14.6449781 12.8325395,14.1782237 C12.2509605,13.7284693 11.594,13.3780307 10.8616579,13.1269079 C10.1291667,12.875636 9.34194737,12.75 8.5,12.75 C7.65805263,12.75 6.86941667,12.8741447 6.13409211,13.1224342 C5.39876754,13.3708728 4.74322368,13.7228026 4.16746053,14.1782237 C4.74903947,14.6449781 5.41464912,15.0083158 6.16428947,15.2682368 C6.91392982,15.5280088 7.6925,15.6578947 8.5,15.6578947 Z M8.5,7.82894737 C8.94513158,7.82894737 9.31734211,7.67922807 9.61663158,7.37978947 C9.91607018,7.0805 10.0657895,6.70828947 10.0657895,6.26315789 C10.0657895,5.81802632 9.91607018,5.44581579 9.61663158,5.14652632 C9.31734211,4.84708772 8.94513158,4.69736842 8.5,4.69736842 C8.05486842,4.69736842 7.68265789,4.84708772 7.38336842,5.14652632 C7.08392982,5.44581579 6.93421053,5.81802632 6.93421053,6.26315789 C6.93421053,6.70828947 7.08392982,7.0805 7.38336842,7.37978947 C7.68265789,7.67922807 8.05486842,7.82894737 8.5,7.82894737 Z" id="Shape"></path>
                </g>
            </g>
        </g>
    </g>
</svg>