<?xml version="1.0" encoding="UTF-8"?>
<svg width="17px" height="17px" viewBox="0 0 17 17" version="1.1" xmlns="http://www.w3.org/2000/svg" xmlns:xlink="http://www.w3.org/1999/xlink">
    <title>Group</title>
    <g id="App" stroke="none" stroke-width="1" fill="none" fill-rule="evenodd">
        <g id="Mes-annonces" transform="translate(-305, -227)" fill="#9F9F9F" fill-rule="nonzero">
            <g id="Group" transform="translate(305, 227)">
                <path d="M1.5,15.5 L2.7615,15.5 L12.998,5.2635 L11.7365,4.002 L1.5,14.2385 L1.5,15.5 Z M0.904,17 C0.647833333,17 0.433166667,16.9133333 0.26,16.74 C0.0866666667,16.5668333 0,16.3521667 0,16.096 L0,14.3635 C0,14.1196667 0.0468333333,13.88725 0.1405,13.66625 C0.234,13.44525 0.362833333,13.2526667 0.527,13.0885 L13.1905,0.43075 C13.3416667,0.293416667 13.5085833,0.187333333 13.69125,0.1125 C13.8740833,0.0375 14.06575,0 14.26625,0 C14.46675,0 14.6609167,0.0355833333 14.84875,0.10675 C15.03675,0.177916667 15.2031667,0.291083333 15.348,0.44625 L16.56925,1.68275 C16.7244167,1.82758333 16.835,1.99425 16.901,2.18275 C16.967,2.37125 17,2.55975 17,2.74825 C17,2.94941667 16.9656667,3.14133333 16.897,3.324 C16.8283333,3.50683333 16.7190833,3.67383333 16.56925,3.825 L3.9115,16.473 C3.74733333,16.6371667 3.55475,16.766 3.33375,16.8595 C3.11275,16.9531667 2.88033333,17 2.6365,17 L0.904,17 Z M15.5095,2.74625 L14.25375,1.4905 L15.5095,2.74625 Z M12.35625,4.64375 L11.7365,4.002 L12.998,5.2635 L12.35625,4.64375 L12.35625,4.64375 Z" id="Shape"></path>
            </g>
        </g>
    </g>
</svg>