<?xml version="1.0" encoding="UTF-8"?>
<svg width="23px" height="23px" viewBox="0 0 23 23" version="1.1" xmlns="http://www.w3.org/2000/svg" xmlns:xlink="http://www.w3.org/1999/xlink">
    <title>Group</title>
    <g id="Symbols" stroke="none" stroke-width="1" fill="none" fill-rule="evenodd">
        <g id="nav" transform="translate(-304, -25)" fill="#B6B6B6" fill-rule="nonzero">
            <g id="Group" transform="translate(304, 25)">
                <path d="M2.32228125,23 C1.66055208,23 1.10807292,22.7783854 0.66484375,22.3351563 C0.221614583,21.8919271 0,21.3394479 0,20.6777188 L0,2.32228125 C0,1.66055208 0.221614583,1.10807292 0.66484375,0.66484375 C1.10807292,0.221614583 1.66055208,0 2.32228125,0 L15.6770156,0 C15.9865573,0 16.287474,0.0626510417 16.5797656,0.187953125 C16.8718177,0.313255208 17.1219427,0.480005208 17.3301406,0.688203125 L22.3117969,5.66985937 C22.5199948,5.87805729 22.6867448,6.12818229 22.8120469,6.42023437 C22.937349,6.71252604 23,7.01344271 23,7.32298437 L23,20.6777188 C23,21.3394479 22.7783854,21.8919271 22.3351563,22.3351563 C21.8919271,22.7783854 21.3394479,23 20.6777188,23 L2.32228125,23 Z M2.32228125,21.5625 L20.6777187,21.5625 C20.93575,21.5625 21.1477812,21.4796042 21.3138125,21.3138125 C21.4796042,21.1477812 21.5625,20.93575 21.5625,20.6777187 L21.5625,7.1875 L16.9736406,7.1875 C16.639901,7.1875 16.3629427,7.07741146 16.1427656,6.85723437 C15.9225885,6.63705729 15.8125,6.36009896 15.8125,6.02635937 L15.8125,1.4375 L2.32228125,1.4375 C2.06425,1.4375 1.85221875,1.52039583 1.6861875,1.6861875 C1.52039583,1.85221875 1.4375,2.06425 1.4375,2.32228125 L1.4375,20.6777187 C1.4375,20.93575 1.52039583,21.1477812 1.6861875,21.3138125 C1.85221875,21.4796042 2.06425,21.5625 2.32228125,21.5625 Z M17.25,17.25 C17.4546042,17.25 17.6255469,17.1813594 17.7628281,17.0440781 C17.9001094,16.9067969 17.96875,16.7358542 17.96875,16.53125 C17.96875,16.3266458 17.9001094,16.1557031 17.7628281,16.0184219 C17.6255469,15.8811406 17.4546042,15.8125 17.25,15.8125 L5.75,15.8125 C5.54539583,15.8125 5.37445313,15.8811406 5.23717188,16.0184219 C5.09989063,16.1557031 5.03125,16.3266458 5.03125,16.53125 C5.03125,16.7358542 5.09989063,16.9067969 5.23717188,17.0440781 C5.37445313,17.1813594 5.54539583,17.25 5.75,17.25 L17.25,17.25 Z M10.78125,7.1875 C10.9858542,7.1875 11.1567969,7.11885938 11.2940781,6.98157813 C11.4313594,6.84429687 11.5,6.67335417 11.5,6.46875 C11.5,6.26414583 11.4313594,6.09320313 11.2940781,5.95592187 C11.1567969,5.81864062 10.9858542,5.75 10.78125,5.75 L5.75,5.75 C5.54539583,5.75 5.37445313,5.81864062 5.23717188,5.95592187 C5.09989063,6.09320313 5.03125,6.26414583 5.03125,6.46875 C5.03125,6.67335417 5.09989063,6.84429687 5.23717188,6.98157813 C5.37445313,7.11885938 5.54539583,7.1875 5.75,7.1875 L10.78125,7.1875 Z M17.25,12.21875 C17.4546042,12.21875 17.6255469,12.1501094 17.7628281,12.0128281 C17.9001094,11.8755469 17.96875,11.7046042 17.96875,11.5 C17.96875,11.2953958 17.9001094,11.1244531 17.7628281,10.9871719 C17.6255469,10.8498906 17.4546042,10.78125 17.25,10.78125 L5.75,10.78125 C5.54539583,10.78125 5.37445313,10.8498906 5.23717188,10.9871719 C5.09989063,11.1244531 5.03125,11.2953958 5.03125,11.5 C5.03125,11.7046042 5.09989063,11.8755469 5.23717188,12.0128281 C5.37445313,12.1501094 5.54539583,12.21875 5.75,12.21875 L17.25,12.21875 Z M1.49140625,1.4375 L1.49140625,7.1875 L1.49140625,1.4375 L1.49140625,21.5625 L1.49140625,1.4375 Z" id="Shape"></path>
            </g>
        </g>
    </g>
</svg>